<mxfile host="app.diagrams.net" modified="2022-03-10T11:19:16.759Z" agent="5.0 (Macintosh; Intel Mac OS X 10_15_7) AppleWebKit/537.36 (KHTML, like Gecko) Chrome/98.0.4758.102 Safari/537.36" etag="WBSl-ed1cxYYK-2qbAlP" version="16.0.0" type="github">
  <diagram id="WeGzuqWGxNbMyqAzmkSq" name="Page-1">
    <mxGraphModel dx="2185" dy="756" grid="1" gridSize="10" guides="1" tooltips="1" connect="1" arrows="1" fold="1" page="1" pageScale="1" pageWidth="827" pageHeight="1169" math="0" shadow="0">
      <root>
        <mxCell id="0" />
        <mxCell id="1" parent="0" />
        <mxCell id="XQfQoBdbFN4m_AGcvm9J-25" value="&lt;h1&gt;Third part&lt;/h1&gt;&lt;div&gt;&amp;nbsp; roland.yu&lt;/div&gt;" style="text;html=1;strokeColor=#6c8ebf;fillColor=#dae8fc;spacing=5;spacingTop=-20;whiteSpace=wrap;overflow=hidden;rounded=0;dashed=1;" vertex="1" parent="1">
          <mxGeometry x="345" y="250" width="290" height="350" as="geometry" />
        </mxCell>
        <mxCell id="XQfQoBdbFN4m_AGcvm9J-19" value="&lt;h1&gt;Second part&amp;nbsp; &amp;nbsp; &amp;nbsp; &amp;nbsp; &amp;nbsp; &amp;nbsp; &amp;nbsp; &amp;nbsp; &amp;nbsp; &amp;nbsp; &amp;nbsp;&amp;nbsp;&lt;/h1&gt;&lt;div&gt;&amp;nbsp; roland.yu&lt;/div&gt;" style="text;html=1;strokeColor=#d6b656;fillColor=#fff2cc;spacing=5;spacingTop=-20;whiteSpace=wrap;overflow=hidden;rounded=0;dashed=1;" vertex="1" parent="1">
          <mxGeometry x="-30" y="190" width="330" height="440" as="geometry" />
        </mxCell>
        <mxCell id="XQfQoBdbFN4m_AGcvm9J-17" value="&lt;h1&gt;First part&lt;/h1&gt;&lt;div&gt;&amp;nbsp; &amp;nbsp; &amp;nbsp; &amp;nbsp; &amp;nbsp; &amp;nbsp; &amp;nbsp; &amp;nbsp; &amp;nbsp; &amp;nbsp; &amp;nbsp; &amp;nbsp; &amp;nbsp; &amp;nbsp; &amp;nbsp; &amp;nbsp; &amp;nbsp; &amp;nbsp; &amp;nbsp; &amp;nbsp; &amp;nbsp;pier.shen&lt;/div&gt;" style="text;html=1;strokeColor=#82b366;fillColor=#d5e8d4;spacing=5;spacingTop=-20;whiteSpace=wrap;overflow=hidden;rounded=0;dashed=1;" vertex="1" parent="1">
          <mxGeometry x="125" y="40" width="200" height="120" as="geometry" />
        </mxCell>
        <mxCell id="XQfQoBdbFN4m_AGcvm9J-5" style="edgeStyle=orthogonalEdgeStyle;rounded=0;orthogonalLoop=1;jettySize=auto;html=1;entryX=0.5;entryY=1;entryDx=0;entryDy=0;" edge="1" parent="1" source="XQfQoBdbFN4m_AGcvm9J-4" target="XQfQoBdbFN4m_AGcvm9J-21">
          <mxGeometry relative="1" as="geometry">
            <mxPoint x="190" y="150" as="targetPoint" />
          </mxGeometry>
        </mxCell>
        <mxCell id="XQfQoBdbFN4m_AGcvm9J-6" value="cron job 定时 4hour" style="edgeLabel;html=1;align=center;verticalAlign=middle;resizable=0;points=[];" vertex="1" connectable="0" parent="XQfQoBdbFN4m_AGcvm9J-5">
          <mxGeometry x="0.1111" y="3" relative="1" as="geometry">
            <mxPoint x="3" y="40" as="offset" />
          </mxGeometry>
        </mxCell>
        <mxCell id="XQfQoBdbFN4m_AGcvm9J-8" value="" style="edgeStyle=orthogonalEdgeStyle;rounded=0;orthogonalLoop=1;jettySize=auto;html=1;" edge="1" parent="1" source="XQfQoBdbFN4m_AGcvm9J-4" target="XQfQoBdbFN4m_AGcvm9J-7">
          <mxGeometry relative="1" as="geometry" />
        </mxCell>
        <mxCell id="XQfQoBdbFN4m_AGcvm9J-4" value="finance_wallet" style="rounded=0;whiteSpace=wrap;html=1;" vertex="1" parent="1">
          <mxGeometry x="130" y="240" width="120" height="50" as="geometry" />
        </mxCell>
        <mxCell id="XQfQoBdbFN4m_AGcvm9J-10" style="edgeStyle=orthogonalEdgeStyle;rounded=0;orthogonalLoop=1;jettySize=auto;html=1;" edge="1" parent="1" source="XQfQoBdbFN4m_AGcvm9J-7" target="XQfQoBdbFN4m_AGcvm9J-9">
          <mxGeometry relative="1" as="geometry" />
        </mxCell>
        <mxCell id="XQfQoBdbFN4m_AGcvm9J-7" value="finance_ams" style="shape=cylinder3;whiteSpace=wrap;html=1;boundedLbl=1;backgroundOutline=1;size=15;" vertex="1" parent="1">
          <mxGeometry x="125" y="360" width="130" height="90" as="geometry" />
        </mxCell>
        <mxCell id="XQfQoBdbFN4m_AGcvm9J-9" value="上账" style="rounded=0;whiteSpace=wrap;html=1;" vertex="1" parent="1">
          <mxGeometry x="500" y="375" width="120" height="60" as="geometry" />
        </mxCell>
        <mxCell id="XQfQoBdbFN4m_AGcvm9J-11" value="cron job&amp;nbsp; 4hour" style="text;html=1;align=center;verticalAlign=middle;resizable=0;points=[];autosize=1;strokeColor=none;fillColor=none;" vertex="1" parent="1">
          <mxGeometry x="345" y="380" width="100" height="20" as="geometry" />
        </mxCell>
        <mxCell id="XQfQoBdbFN4m_AGcvm9J-14" value="" style="rounded=0;whiteSpace=wrap;html=1;dashed=1;dashPattern=1 1;" vertex="1" parent="1">
          <mxGeometry x="-22.5" y="450" width="152.5" height="170" as="geometry" />
        </mxCell>
        <mxCell id="XQfQoBdbFN4m_AGcvm9J-12" value="cactus_transaction_data" style="rounded=0;whiteSpace=wrap;html=1;dashed=1;dashPattern=1 1;" vertex="1" parent="1">
          <mxGeometry x="-12.5" y="480" width="132.5" height="30" as="geometry" />
        </mxCell>
        <mxCell id="XQfQoBdbFN4m_AGcvm9J-13" value="&lt;span&gt;cactus_in_out_data&lt;/span&gt;" style="rounded=0;whiteSpace=wrap;html=1;dashed=1;dashPattern=1 1;" vertex="1" parent="1">
          <mxGeometry x="-12.5" y="510" width="132.5" height="30" as="geometry" />
        </mxCell>
        <mxCell id="XQfQoBdbFN4m_AGcvm9J-15" value="Save In One Transaction" style="text;html=1;align=center;verticalAlign=middle;resizable=0;points=[];autosize=1;strokeColor=none;fillColor=none;" vertex="1" parent="1">
          <mxGeometry x="-20" y="450" width="150" height="20" as="geometry" />
        </mxCell>
        <mxCell id="XQfQoBdbFN4m_AGcvm9J-20" value="Cactus平台API" style="rounded=0;whiteSpace=wrap;html=1;" vertex="1" parent="1">
          <mxGeometry x="-40" y="80" width="120" height="60" as="geometry" />
        </mxCell>
        <mxCell id="XQfQoBdbFN4m_AGcvm9J-22" style="edgeStyle=orthogonalEdgeStyle;rounded=0;orthogonalLoop=1;jettySize=auto;html=1;entryX=1;entryY=0.5;entryDx=0;entryDy=0;" edge="1" parent="1" source="XQfQoBdbFN4m_AGcvm9J-21" target="XQfQoBdbFN4m_AGcvm9J-20">
          <mxGeometry relative="1" as="geometry" />
        </mxCell>
        <mxCell id="XQfQoBdbFN4m_AGcvm9J-21" value="finance_cactus" style="rounded=0;whiteSpace=wrap;html=1;" vertex="1" parent="1">
          <mxGeometry x="130" y="80" width="120" height="60" as="geometry" />
        </mxCell>
        <mxCell id="XQfQoBdbFN4m_AGcvm9J-26" value="transaction_task_mark" style="rounded=0;whiteSpace=wrap;html=1;dashed=1;" vertex="1" parent="1">
          <mxGeometry x="370" y="460" width="160" height="60" as="geometry" />
        </mxCell>
      </root>
    </mxGraphModel>
  </diagram>
</mxfile>
